<?xml version="1.0" encoding="UTF-8"?>
<!-- Generated by Pixelmator Pro 3.7 -->
<svg width="1000" height="1000" viewBox="0 0 1000 1000" xmlns="http://www.w3.org/2000/svg">
    <path id="Shape" fill="#4cd4b0" fill-rule="evenodd" stroke="none" d="M 282 813 C 718 813 718 813 717.988159 817.75 C 717.981628 820.362488 717.318481 824.974976 716.514526 828 C 715.710571 831.025024 713.394226 836.875 711.367126 841 C 708.682373 846.463379 705.620239 850.555237 700.090759 856.068542 C 695.915833 860.231201 690.025024 865.03125 687 866.735168 C 683.974976 868.439148 678.575012 870.843384 675 872.077881 C 669.09967 874.115417 665.91687 874.382996 640.5 874.978271 C 613.711914 875.605591 612.182556 875.74707 605.165405 878.246216 C 601.131348 879.682922 595.360596 882.352783 592.341492 884.179199 C 589.322388 886.005615 584.350525 889.940125 581.292847 892.922424 C 578.235168 895.904785 573.988647 901.044495 571.856018 904.344055 C 569.72345 907.643555 566.796448 913.978455 565.351624 918.42157 C 562.836487 926.156006 562.707092 927.649658 562.312622 953.5 C 561.988342 974.74762 561.565369 981.427856 560.327393 984.855103 C 559.462219 987.250427 557.509766 990.627686 555.98877 992.360046 C 554.467712 994.092407 551.330444 996.520081 549.01709 997.754883 C 544.836304 999.986511 544.539001 1000 499.642151 1000 C 454.473297 1000 454.473297 1000 449.23053 996.469299 C 446.347015 994.527405 442.753021 991.074219 441.243866 988.795532 C 438.5 984.652405 438.5 984.652405 437.845886 956.076233 C 437.369171 935.249573 436.782257 926.071289 435.68158 922.231689 C 434.850952 919.334106 432.797272 914.027039 431.117859 910.438171 C 429.438446 906.849365 426.041443 901.345093 423.568909 898.206543 C 421.096405 895.067932 416.694427 890.650696 413.786713 888.390442 C 410.879028 886.130188 406.09436 883.063232 403.154114 881.575012 C 400.213867 880.086792 394.404388 877.998596 390.244141 876.93457 C 383.89975 875.311951 379.118134 874.997192 360.590027 874.982666 C 345.104889 874.970459 336.407013 874.527344 331.5 873.500671 C 327.649994 872.695129 320.772949 870.198914 316.217682 867.953552 C 310.995361 865.379395 305.566437 861.65509 301.523438 857.873047 C 297.996857 854.574097 293.429535 849.341003 291.373779 846.243896 C 289.318024 843.146729 286.373962 836.987427 284.831421 832.556396 C 283.032318 827.388428 282.021973 822.438477 282.013367 818.75 L 282 813 Z"/>
    <path id="path1" fill="#4cd4b0" fill-rule="evenodd" stroke="none" d="M 284.321838 750 C 265.859924 737.311768 256.450012 730.481689 251.5 726.635986 C 246.550003 722.790344 238 715.737854 232.5 710.963867 C 227 706.189819 215.811142 695.395752 207.635864 686.977051 C 199.460602 678.55835 188.639404 666.457031 183.58876 660.085144 C 178.538116 653.713318 171.165466 643.91748 167.205078 638.31665 C 163.244705 632.71582 156.36467 622.140869 151.916138 614.81665 C 147.46759 607.492493 140.060257 593.849976 135.455383 584.5 C 130.85051 575.150024 125.20694 562.775024 122.914108 557 C 120.621269 551.224976 116.564384 539.850891 113.898796 531.724182 C 111.233215 523.597534 107.489677 510.547485 105.579826 502.724182 C 103.669983 494.900879 100.981155 481.75 99.60466 473.5 C 98.228172 465.25 96.51651 451.974976 95.800972 444 C 95.085442 436.025024 94.5 418.25 94.5 404.5 C 94.5 386.952271 95.045486 374.581482 96.329933 363 C 97.336403 353.924988 99.274422 340.457275 100.63665 333.071777 C 101.998871 325.686218 104.635689 313.704041 106.496239 306.444641 C 108.356789 299.185303 111.95858 286.882935 114.500221 279.10614 C 117.041862 271.329346 121.376709 259.461548 124.133209 252.733276 C 126.889709 246.004944 131.876129 234.957031 135.214142 228.182312 C 138.55217 221.407593 144.41954 210.382568 148.252777 203.682312 C 152.086014 196.982056 159.500153 185.235535 164.728668 177.578918 C 169.957184 169.922302 177.496536 159.572327 181.482803 154.578918 C 185.469055 149.58551 192.104324 141.674988 196.227829 137 C 200.351334 132.325012 209.299454 123.01709 216.112549 116.315796 C 222.925644 109.614441 232.550003 100.685364 237.5 96.473389 C 242.449997 92.261353 251 85.434265 256.5 81.301941 C 262 77.169678 271.450012 70.530579 277.5 66.548401 C 283.549988 62.566223 293.733093 56.307373 300.12912 52.639954 C 306.525116 48.972473 317.448547 43.270264 324.403381 39.968262 C 331.358215 36.66626 341.650116 32.120422 347.274261 29.866333 C 352.898407 27.612244 363.350006 23.758789 370.5 21.303162 C 377.649994 18.847534 389.350006 15.333801 396.5 13.494934 C 403.649994 11.656128 414 9.26355 419.5 8.178101 C 425 7.092712 432.762512 5.667969 436.75 5.011963 C 440.381561 4.414551 478.523102 0 500.5 0 C 524.210693 0 559.871887 4.407288 562.25 4.861938 C 565.137512 5.41394 572.450012 6.812561 578.5 7.969971 C 584.549988 9.12738 595.422058 11.621399 602.660095 13.512207 C 609.898132 15.403015 620.248169 18.363892 625.660095 20.091919 C 631.072021 21.820007 641.125 25.466125 648 28.194519 C 654.875 30.922974 666.575012 36.060974 674 39.612427 C 681.424988 43.163818 692.450012 48.810425 698.5 52.1604 C 704.549988 55.510376 716.474976 62.881836 725 68.541443 C 733.525024 74.20105 746.349976 83.527649 753.5 89.267212 C 760.650024 95.006836 771.231812 104.157227 777.015137 109.60144 C 782.798462 115.045654 791.965515 124.224976 797.386292 130 C 802.807068 135.775024 811.585693 145.900024 816.894348 152.5 C 822.203003 159.099976 829.964722 169.450012 834.1427 175.5 C 838.320679 181.549988 845.43158 192.690735 849.944641 200.257141 C 854.457764 207.823608 861.452026 220.873596 865.487488 229.257141 C 869.522949 237.640747 875.060608 250.125 877.793457 257 C 880.526245 263.875 884.433716 274.674988 886.476685 281 C 888.519592 287.325012 891.731506 298.575012 893.614197 306 C 895.496887 313.424988 897.944946 324.450012 899.054382 330.5 C 900.163757 336.549988 901.698975 346.224976 902.465942 352 C 903.232971 357.775024 904.412231 369.820007 905.086548 378.766602 C 905.866089 389.110046 906.077454 402.582886 905.666992 415.766602 C 905.31189 427.169983 904.37738 442.349976 903.590271 449.5 C 902.803162 456.650024 901.202881 468.070068 900.034058 474.877869 C 898.865234 481.68573 896.57074 492.888458 894.935181 499.772858 C 893.299622 506.657257 890.382935 517.512207 888.453735 523.89502 C 886.524536 530.27771 883.091187 540.450012 880.824036 546.5 C 878.556885 552.549988 874.229797 563.125 871.208252 570 C 868.186707 576.875 862.995117 587.674988 859.671387 594 C 856.347717 600.325012 850.733521 610.224976 847.195557 616 C 843.657532 621.775024 837.358459 631.450012 833.197632 637.5 C 829.036804 643.549988 821.249695 653.94751 815.892944 660.605469 C 810.536194 667.263489 799.931396 679.144775 792.326721 687.008301 C 784.722046 694.871887 773.549988 705.658691 767.5 710.979126 C 761.450012 716.299438 751.775024 724.262695 746 728.675171 C 740.224976 733.087646 731.003418 739.690857 725.507629 743.348938 L 715.515259 750 L 499.918549 750 Z M 587.5 647.595093 C 596.073547 647.314575 601.071716 646.641968 605.004456 645.239563 C 608.031921 644.159973 613.431946 641.804443 617.004456 640.005127 C 621.378845 637.80188 626.143005 634.083008 631.593567 628.616821 C 637.623535 622.56958 640.619751 618.587769 643.344788 613 C 645.356506 608.875 647.728516 602.515442 648.615906 598.867676 C 649.781006 594.078125 650.110046 589.215698 649.800171 581.367676 C 649.468506 572.969238 648.776917 568.833496 646.756287 563.165405 C 645.318176 559.131348 642.647217 553.360596 640.820801 550.341553 C 638.994324 547.322388 635.143738 542.436401 632.263916 539.483765 C 629.384094 536.531067 625.047791 532.75293 622.627747 531.087891 C 620.207703 529.422852 615.866821 527.130005 612.981323 525.992615 C 607.734924 523.924683 607.734924 523.924683 608.478943 527.212341 C 608.888123 529.020569 609.595886 532.525024 610.051819 535 C 610.507751 537.474976 610.907593 542.251099 610.940369 545.613525 C 610.973206 548.975952 610.559265 554.051025 610.020569 556.891541 C 609.481873 559.732056 607.838196 565.080933 606.36792 568.778076 C 604.897644 572.475098 602.013489 577.989014 599.958679 581.03125 C 597.903809 584.073364 593.334106 589.264526 589.803711 592.567017 C 585.974304 596.149292 580.382507 600.042908 575.942444 602.218872 C 571.849121 604.224854 565.031494 606.571289 560.792175 607.433105 C 556.552856 608.294922 550.927856 608.984314 548.292175 608.965088 C 545.656494 608.945923 539.916626 608.291748 535.536987 607.511475 C 531.157288 606.731201 527.3526 606.314026 527.082153 606.584534 C 526.811646 606.85498 527.119568 608.478455 527.766418 610.192139 C 528.413269 611.905823 530.417969 615.756226 532.221252 618.748596 C 534.024536 621.740967 538.652954 627.184204 542.506531 630.844604 C 546.360107 634.505127 552.226929 638.937866 555.543884 640.695313 C 558.860779 642.452698 564.707825 644.812378 568.537292 645.939087 C 574.3172 647.639648 577.538574 647.920959 587.5 647.595093 Z M 712.5 522.595093 C 721.073547 522.314575 726.071716 521.641968 730.004456 520.239563 C 733.031921 519.159973 738.431946 516.804443 742.004456 515.005127 C 746.378845 512.80188 751.143005 509.083008 756.593567 503.616791 C 762.646545 497.546478 765.605286 493.609039 768.328552 488 C 770.331299 483.875 772.651672 477.817932 773.484985 474.539917 C 774.318237 471.261841 775 464.351807 775 459.184265 C 775 453.9104 774.309998 447.093201 773.427185 443.644348 C 772.562134 440.264954 770.334717 434.349976 768.477295 430.5 C 766.619873 426.650024 763.1651 421.180054 760.80011 418.344482 C 758.435059 415.508972 754.25 411.335327 751.5 409.069763 C 748.75 406.804138 744.511536 403.98468 742.081116 402.80426 C 739.650757 401.623901 736.629578 400.460693 735.367432 400.219421 C 733.400635 399.843445 733.144897 400.117981 733.578491 402.140381 C 733.85675 403.438171 734.512756 406.974976 735.036377 410 C 735.559998 413.025024 735.991028 418.026062 735.994202 421.113525 C 735.997375 424.200928 735.559265 429.051025 735.020569 431.891541 C 734.481873 434.732056 732.838196 440.080933 731.36792 443.778015 C 729.897644 447.475098 727.013489 452.989075 724.958679 456.031189 C 722.903809 459.073364 718.334106 464.264465 714.803711 467.567017 C 710.974304 471.149231 705.382507 475.042908 700.942444 477.218872 C 696.849121 479.224854 690.031494 481.571289 685.792175 482.433105 C 681.552856 483.294861 675.927856 483.984314 673.292175 483.965088 C 670.656494 483.945923 664.900024 483.280273 660.5 482.48584 C 656.099976 481.691406 652.140198 481.152039 651.700439 481.287231 C 651.26062 481.422424 652.572937 484.900635 654.616638 489.016541 C 657.361755 494.545044 660.444214 498.599426 666.41626 504.53653 C 671.258606 509.350616 676.920776 513.8396 680.537292 515.731812 C 683.857849 517.469116 689.707825 519.812378 693.537292 520.939087 C 699.3172 522.639648 702.538574 522.920959 712.5 522.595093 Z M 556.5 491.609406 C 563.816956 491.3414 568.704041 490.531067 574.714478 488.589264 C 579.65448 486.993286 585.917542 483.936584 590.426086 480.921082 C 594.5495 478.163147 600.153625 473.404236 602.8797 470.345642 C 605.605774 467.287048 609.243347 462.144409 610.963257 458.917603 C 612.683105 455.690735 615.002502 450.451721 616.117371 447.27533 C 617.340027 443.791748 618.374695 437.579895 618.724731 431.621338 C 619.169495 424.049377 618.891479 419.988525 617.534058 414.230652 C 616.560059 410.099121 614.85144 404.644531 613.737122 402.109375 C 612.622803 399.574219 610.259277 395.219666 608.484741 392.432556 C 606.710266 389.645447 602.837769 384.968933 599.879211 382.040283 C 596.920654 379.111694 592.264221 375.317017 589.531555 373.607788 C 586.79895 371.898499 583.42395 370.131104 582.031555 369.680176 C 580.639221 369.229309 578.743164 368.622314 577.818115 368.33136 C 576.273804 367.845642 576.250183 368.180908 577.529053 372.430359 C 578.295105 374.975708 579.221069 380.360229 579.586792 384.395935 C 579.970947 388.634949 579.774292 394.475159 579.121094 398.225891 C 578.499268 401.796753 577.159668 407.236694 576.144226 410.314758 C 575.128784 413.392761 572.768433 418.499451 570.898987 421.662964 C 569.029541 424.826477 564.555847 430.358948 560.957397 433.957397 C 557.358948 437.555847 551.790894 442.051086 548.583923 443.946899 C 545.376953 445.842651 540.282898 448.227661 537.263855 449.246948 C 534.244751 450.266174 528.112793 451.534607 523.637329 452.065674 C 517.479248 452.796448 513.192871 452.679382 506.014618 451.584412 C 500.797638 450.788574 496.323822 450.342834 496.072815 450.593872 C 495.821777 450.84491 496.218079 452.72644 496.953461 454.775146 C 497.688843 456.823792 499.975067 460.989075 502.033966 464.031189 C 504.092834 467.073364 508.653198 472.248413 512.16803 475.531189 C 515.682922 478.814026 521.5755 483.026001 525.262573 484.891113 C 528.949707 486.756226 535.236511 489.113251 539.233215 490.128937 C 544.62384 491.498901 549.081787 491.881134 556.5 491.609406 Z"/>
</svg>
